<svg class="main-logo--vertical" viewBox="0 0 224 137" fill="none" xmlns="http://www.w3.org/2000/svg">
<g clip-path="url(#clip0)">
<path d="M75.0829 27.6857C74.9045 24.6492 74.1911 21.7913 72.7644 19.2906C71.1593 16.6113 69.0192 14.2893 66.344 12.8604C63.6688 11.2528 60.637 10.5383 57.2485 10.5383C53.8599 10.5383 50.8281 11.4314 48.1529 12.8604C45.4778 14.4679 43.3376 16.6113 41.7325 19.2906C40.1274 21.9699 39.4141 25.185 39.4141 28.5787C39.4141 31.9725 40.1274 35.009 41.5542 37.8669C42.9809 40.5462 44.9427 42.6896 47.6179 44.2971C50.1147 45.9047 53.1465 46.7978 56.1784 46.7978C56.7134 46.7978 57.2485 46.7978 57.7835 46.7978C58.6752 46.6192 60.2803 46.2619 60.9937 45.5475C61.7071 44.833 62.0637 43.9399 62.0637 42.8682C62.0637 41.7965 61.7071 40.9034 60.9937 40.1889C60.2803 39.4744 59.3886 39.1172 58.3185 39.1172C58.1402 39.1172 57.6051 39.1172 57.4268 39.1172C55.6434 39.1172 54.0383 38.76 52.6115 37.8669C51.1848 36.9738 49.9364 35.7235 49.223 34.2945C48.3313 32.687 47.9746 30.9008 47.9746 29.1146C47.9746 27.1498 48.3313 25.3636 49.223 23.7561C50.1147 22.1485 51.1848 21.0768 52.6115 20.1837C54.0383 19.2906 55.6434 18.9334 57.4268 18.9334C59.2102 18.9334 60.9937 19.2906 62.4204 20.1837C63.8472 21.0768 64.9173 22.3271 65.809 23.7561C66.7007 25.3636 67.0574 27.1498 67.0574 29.1146C67.0574 31.0794 66.7007 43.404 66.879 43.404C67.0574 44.2971 67.4141 45.1902 68.1274 45.9047C69.0192 46.7978 69.9109 47.155 71.1593 47.155C72.4077 47.155 73.4778 46.7978 74.1911 45.9047C75.0829 45.0116 75.4395 44.1185 75.4395 42.8682L75.0829 27.6857Z" fill="#001D85"></path>
<path d="M88.8154 11.7888V4.28683C88.8154 3.03651 88.4587 1.9648 87.567 1.25033C86.8536 0.535854 85.7835 0 84.5351 0C83.2867 0 82.2167 0.357236 81.5033 1.25033C80.7899 1.9648 80.2549 3.03651 80.2549 4.28683V11.9674H78.6498C77.4014 11.9674 76.5096 12.3246 75.7963 13.0391C75.0829 13.7536 74.5479 14.6467 74.5479 15.897C74.5479 16.9687 74.9045 17.8618 75.7963 18.5763C76.5096 19.2907 77.5797 19.648 78.6498 19.648H80.2549V33.5802C80.2549 36.0808 80.7899 38.2243 81.86 40.1891C82.93 42.1539 84.3568 43.7614 86.1402 44.8331C87.9237 45.9048 90.0638 46.6193 92.2039 46.6193H93.274C94.7007 46.6193 95.7708 46.2621 96.6625 45.5476C97.5542 44.8331 98.0893 43.7614 98.0893 42.5111C98.0893 41.2608 97.7326 40.3677 97.0192 39.4746C96.3058 38.5815 95.4141 38.2243 94.344 38.2243H92.2039C91.3122 38.2243 90.5988 37.867 89.8854 36.9739C89.1721 36.0808 88.8154 35.0091 88.8154 33.5802V19.648" fill="#001D85"></path>
<path d="M134.293 27.6857C134.114 24.6492 133.401 21.7913 131.974 19.2906C130.369 16.6113 128.229 14.2893 125.554 12.8604C122.879 11.2528 119.847 10.5383 116.458 10.5383C113.07 10.5383 110.038 11.4314 107.363 12.8604C104.688 14.4679 102.548 16.6113 100.942 19.2906C99.3374 21.9699 98.624 25.185 98.624 28.5787C98.624 31.9725 99.3374 35.009 100.764 37.8669C102.191 40.5462 104.153 42.6896 106.828 44.2971C109.325 45.9047 112.356 46.7978 115.388 46.7978C115.923 46.7978 116.458 46.7978 116.993 46.7978C117.885 46.6192 119.49 46.2619 120.204 45.5475C120.917 44.833 121.274 43.9399 121.274 42.8682C121.274 41.7965 120.917 40.9034 120.204 40.1889C119.49 39.4744 118.599 39.1172 117.528 39.1172C117.35 39.1172 116.815 39.1172 116.637 39.1172C114.853 39.1172 113.248 38.76 111.821 37.8669C110.395 36.9738 109.146 35.7235 108.433 34.2945C107.541 32.687 107.185 30.9008 107.185 29.1146C107.185 27.1498 107.541 25.3636 108.433 23.7561C109.325 22.1485 110.395 21.0768 111.821 20.1837C113.248 19.2906 114.853 18.9334 116.637 18.9334C118.42 18.9334 120.204 19.2906 121.63 20.1837C123.057 21.0768 124.127 22.3271 125.019 23.7561C125.911 25.3636 126.267 27.1498 126.267 29.1146C126.267 31.0794 125.911 43.404 126.089 43.404C126.267 44.2971 126.624 45.1902 127.337 45.9047C128.229 46.7978 129.121 47.155 130.369 47.155C131.618 47.155 132.688 46.7978 133.401 45.9047C134.293 45.0116 134.649 44.1185 134.649 42.8682L134.293 27.6857Z" fill="#001D85"></path>
<path d="M145.351 39.2958C144.637 38.5814 143.745 38.2241 142.675 38.2241C141.605 38.2241 140.714 38.5814 140 39.2958C139.287 40.0103 138.93 40.9034 138.93 41.9751C138.93 43.0468 139.287 43.9399 140 44.6544C140.714 45.3688 141.605 45.7261 142.675 45.7261C143.745 45.7261 144.637 45.3688 145.351 44.6544C146.064 43.9399 146.421 43.0468 146.421 41.9751C146.421 40.9034 146.064 40.0103 145.351 39.2958Z" fill="#FFCC00"></path>
<path d="M60.9936 39.8317C60.2802 39.1172 59.3885 38.76 58.3185 38.76C57.2484 38.76 56.3567 39.1172 55.6433 39.8317C54.9299 40.5462 54.5732 41.4393 54.5732 42.511C54.5732 43.5827 54.9299 44.4758 55.6433 45.1903C56.3567 45.9047 57.2484 46.262 58.3185 46.262C59.3885 46.262 60.2802 45.9047 60.9936 45.1903C61.707 44.4758 62.0637 43.5827 62.0637 42.511C62.0637 41.4393 61.707 40.5462 60.9936 39.8317Z" fill="#4A82FA"></path>
<path d="M95.771 13.2177C95.0576 12.5032 94.1659 12.146 93.0958 12.146C92.0257 12.146 91.134 12.5032 90.4207 13.2177C89.7073 13.9322 89.3506 14.8253 89.3506 15.897C89.3506 16.9687 89.7073 17.8618 90.4207 18.5762C91.134 19.2907 92.0257 19.648 93.0958 19.648C94.1659 19.648 95.0576 19.2907 95.771 18.5762C96.4843 17.8618 96.841 16.9687 96.841 15.897C96.841 14.8253 96.4843 13.9322 95.771 13.2177Z" fill="#DC5149"></path>
<path d="M135.007 78.2346C132.51 87.7014 122.701 93.2385 113.249 90.7379C103.796 88.2372 98.2677 78.4132 100.765 68.9465C102.905 61.0873 110.038 55.7288 118.064 55.7288C120.382 55.7288 122.166 57.6936 122.166 60.0156C122.166 62.3376 120.204 64.1238 117.886 64.1238C113.605 64.1238 109.86 66.9817 108.79 71.0899C107.363 76.0912 110.395 81.2711 115.389 82.7001C120.382 84.129 125.554 81.0925 126.981 76.0912C127.694 73.5906 127.338 71.0899 126.089 68.9465C125.019 66.9817 125.554 64.3024 127.695 63.2307C129.656 62.159 132.331 62.6949 133.402 64.8383C135.542 68.9465 136.255 73.7692 135.007 78.2346Z" fill="#001D85"></path>
<path d="M126.981 62.6949C125.911 63.2308 125.376 64.1239 125.02 65.1956C124.663 66.2673 124.841 67.339 125.376 68.4107C125.911 69.4824 126.803 70.0182 127.873 70.3755C128.943 70.7327 130.013 70.5541 131.083 70.0182C132.153 69.4824 132.688 68.5893 133.045 67.5176C133.402 66.4459 133.223 65.3742 132.688 64.3025C132.153 63.2308 131.262 62.6949 130.192 62.3377C129.121 61.9804 128.051 61.9804 126.981 62.6949Z" fill="#FFCC00"></path>
<path d="M31.2103 82.1642C30.4969 81.4497 29.6052 81.2711 28.5352 81.2711C27.6434 81.2711 26.7517 81.6284 25.86 82.1642C25.1466 82.7001 24.2549 83.2359 23.0065 83.5932C21.7581 83.9504 20.688 84.3076 19.618 84.3076C17.4778 84.3076 15.6944 83.7718 14.0893 82.8787C12.4842 81.9856 11.2358 80.7353 10.3441 79.1277C9.98739 78.4132 9.6307 77.8774 9.45236 77.1629C9.45236 77.1629 8.56064 73.2333 9.45236 69.8396C9.98739 68.4106 9.80904 68.7679 9.98739 68.232C10.7008 66.6245 11.7708 65.3741 13.3759 64.481C14.8027 63.5879 16.5861 63.0521 18.7262 63.0521C20.5097 63.0521 22.1148 63.4093 23.1848 64.3024C23.7199 64.6597 24.2549 65.1955 24.6116 65.5527C24.4332 65.7314 24.2549 65.7314 23.8982 65.91L17.2995 71.4471C15.516 72.8761 15.1594 74.6623 16.4078 76.4484C17.6562 78.5918 19.9746 79.4849 21.9364 78.056C21.9364 78.056 29.2485 72.5188 32.6371 69.8396C33.7071 68.9465 34.2422 67.5175 33.7071 66.0886C33.5288 65.5527 33.1721 64.8383 32.9938 64.3024C31.7453 61.6231 29.7836 59.4797 27.2868 58.0508C24.7899 56.6218 21.9364 55.7288 18.5479 55.7288C15.1594 55.7288 12.1275 56.4432 9.45236 58.0508C6.7772 59.6584 4.63707 61.8018 3.21032 64.481C1.78357 67.1603 0.891846 70.3754 0.891846 73.9478C0.891846 77.5201 1.78357 80.5566 3.21032 83.2359C4.81541 85.9152 6.95554 88.0586 9.80904 89.6662C12.6625 91.2737 15.8727 91.9882 19.4396 91.9882C21.4014 91.9882 23.5415 91.631 25.6817 90.9165C27.8218 90.202 29.7836 89.1303 31.2103 88.0586C32.4587 87.1655 32.6371 85.9152 32.6371 85.2007C32.6371 84.129 32.102 83.0573 31.2103 82.1642Z" fill="#001D85"></path>
<path d="M68.4841 57.1578C67.5924 56.2647 66.7007 55.9075 65.4523 55.9075C64.2039 55.9075 63.1338 56.2647 62.4204 57.1578C61.5287 58.0509 61.172 58.944 61.172 60.1943V75.1982C61.172 77.3416 60.8153 78.9492 60.102 80.1995C59.3886 81.4499 58.3185 82.3429 57.0701 83.0574C56 83.5933 54.7516 83.7719 53.5032 83.9505C52.2548 83.7719 51.0064 83.5933 49.9363 83.0574C48.6879 82.5216 47.7962 81.4499 46.9045 80.1995C46.1911 78.9492 45.8344 77.163 45.8344 75.1982V60.1943C45.8344 58.944 45.4777 57.8723 44.586 57.1578C43.6943 56.2647 42.8026 55.9075 41.5542 55.9075C40.3058 55.9075 39.2357 56.2647 38.5223 57.1578C37.6306 58.0509 37.2739 58.944 37.2739 60.1943V75.1982C37.2739 78.7706 37.9873 81.8071 39.4141 84.3077C40.8408 86.8084 42.8026 88.7732 45.1211 90.0235C47.4395 91.2738 50.293 91.9883 53.1465 91.9883C53.3249 91.9883 53.3249 91.9883 53.5032 91.9883C53.6816 91.9883 53.6816 91.9883 53.8599 91.9883C56.8918 91.9883 59.5669 91.2738 61.8854 90.0235C64.3822 88.7732 66.1656 86.8084 67.5924 84.3077C69.0191 81.8071 69.7325 78.7706 69.7325 75.1982V60.1943C69.7325 58.944 69.3758 57.8723 68.4841 57.1578Z" fill="#001D85"></path>
<path d="M99.6944 56.9791C98.2676 56.086 96.1275 55.7288 93.4523 55.7288C90.7772 55.7288 87.2103 56.2646 84.5351 57.1577C80.2549 58.5866 76.3313 61.9804 75.9746 66.6245V87.5228C75.9746 88.9517 76.3313 90.0234 77.0447 90.7379C77.7581 91.4524 78.8281 91.8096 80.0765 91.8096C81.5033 91.8096 82.5733 91.4524 83.2867 90.5593C84.0001 89.8448 84.3568 88.7731 84.3568 87.5228V69.661C84.3568 68.0534 84.8918 66.8031 85.7835 65.91C86.8536 64.8383 88.2803 64.1238 90.0638 63.7666C92.0256 63.4093 94.1657 63.4093 96.4842 63.9452C97.1975 64.1238 97.9109 64.1238 98.4459 63.9452C99.1593 63.7666 99.6944 63.588 100.229 63.0521C100.764 62.5162 101.121 61.9804 101.299 61.0873C101.834 60.1942 101.834 58.408 99.6944 56.9791Z" fill="#001D85"></path>
<path d="M138.93 104.849C139.643 105.563 140.713 106.099 141.962 106.099C143.21 106.099 144.28 105.742 144.994 104.849C145.885 104.134 146.242 103.063 146.242 101.812V88.416C146.064 88.2373 146.064 75.7341 146.064 73.9479C146.064 71.9831 146.421 70.1969 147.312 68.5894C148.204 66.9818 149.274 65.7315 150.701 64.8384C152.128 63.9453 153.733 63.588 155.694 63.588C157.478 63.588 159.083 63.9453 160.51 64.8384C161.936 65.7315 163.185 66.9818 163.898 68.5894C164.79 70.1969 165.147 71.9831 165.147 73.9479C165.147 75.9127 164.79 77.6989 163.898 79.3064C163.006 80.7354 161.936 81.9857 160.51 82.8788C159.083 83.7719 157.478 84.1291 155.694 84.1291C155.338 84.1291 154.268 84.1291 154.089 84.1291C153.019 84.1291 152.128 84.4864 151.414 85.2008C150.701 85.9153 150.344 86.8084 150.344 87.8801C150.344 88.9518 150.701 89.8449 151.414 90.5594C151.771 90.9166 152.306 91.4525 152.841 91.6311C154.089 92.1669 155.338 92.1669 156.943 92.1669C160.153 92.1669 163.007 91.2738 165.503 89.6663C168 88.0587 169.962 85.9153 171.567 83.236C172.994 80.5568 173.707 77.3416 173.707 73.9479C173.707 70.5542 172.815 67.339 171.389 64.6598C169.784 61.9805 167.643 59.6584 164.968 58.2295C162.293 56.6219 159.083 55.9075 155.873 55.9075C152.484 55.9075 149.452 56.8006 146.777 58.2295C144.102 59.8371 141.962 61.9805 140.357 64.6598C138.752 67.339 138.038 70.5542 138.038 73.9479V101.812C137.682 103.063 138.217 104.134 138.93 104.849Z" fill="#001D85"></path>
<path d="M211.873 73.0548C211.695 70.0183 210.981 67.1604 209.554 64.6598C207.949 61.9805 205.809 59.6584 203.134 58.2295C200.459 56.6219 197.427 55.9075 194.038 55.9075C190.65 55.9075 187.618 56.8006 184.943 58.2295C182.268 59.8371 180.128 61.9805 178.523 64.6598C176.917 67.339 176.204 70.5541 176.204 73.9479C176.204 77.3416 176.917 80.3781 178.344 83.236C179.771 85.9153 181.733 88.0587 184.408 89.6663C186.905 91.2738 189.937 92.1669 192.968 92.1669C193.503 92.1669 194.038 92.1669 194.574 92.1669C195.465 91.9883 197.07 91.6311 197.784 90.9166C198.497 90.2021 198.854 89.309 198.854 88.2373C198.854 87.1656 198.497 86.2725 197.784 85.5581C197.07 84.8436 196.179 84.4863 195.109 84.4863C194.93 84.4863 194.395 84.4863 194.217 84.4863C192.433 84.4863 190.828 84.1291 189.402 83.236C187.975 82.3429 186.726 81.0926 186.013 79.6637C185.121 78.0561 184.765 76.2699 184.765 74.4837C184.765 72.5189 185.121 70.7328 186.013 69.1252C186.905 67.5176 187.975 66.4459 189.402 65.5528C190.828 64.6598 192.433 64.3025 194.217 64.3025C196 64.3025 197.784 64.6598 199.21 65.5528C200.637 66.4459 201.707 67.6963 202.599 69.1252C203.491 70.7328 203.847 72.5189 203.847 74.4837C203.847 76.4485 203.491 88.7732 203.669 88.7732C203.847 89.6663 204.204 90.5594 204.917 91.2738C205.809 92.1669 206.701 92.5242 207.949 92.5242C209.198 92.5242 210.268 92.1669 210.981 91.2738C211.873 90.3807 212.23 89.4877 212.23 88.2373L211.873 73.0548Z" fill="#001D85"></path>
<path d="M33.8856 127.176C33.1722 126.462 32.2805 126.283 31.2105 126.283C30.3187 126.283 29.427 126.64 28.5353 127.176C27.8219 127.712 26.9302 128.248 25.6818 128.605C24.4334 128.962 23.3633 129.32 22.2933 129.32C20.1531 129.32 18.3697 128.784 16.7646 127.891C15.1595 126.997 13.9111 125.747 13.0194 124.14C12.6627 123.425 12.306 122.889 12.1276 122.175C12.1276 122.175 11.2359 118.245 12.1276 114.851C12.4843 113.423 12.4843 113.958 12.6627 113.423C13.3761 111.815 14.4461 110.565 16.0512 109.672C17.478 108.778 19.2614 108.243 21.4015 108.243C23.185 108.243 24.7901 108.6 25.8601 109.493C26.3952 109.85 26.7519 110.207 27.1085 110.565C26.9302 110.743 26.7519 110.743 26.3952 110.922L19.6181 116.102C17.8347 117.531 17.2996 119.853 18.3697 121.818C19.6181 123.961 22.6499 124.497 24.6117 122.889C24.6117 122.889 31.9238 117.352 35.3124 114.673C36.3824 113.78 36.9175 112.351 36.3824 110.922C36.2041 110.386 35.8474 109.672 35.669 109.136C34.4206 106.456 32.4589 104.313 29.962 102.884C27.4652 101.455 24.6117 100.562 21.2232 100.562C17.8347 100.562 14.8028 101.276 12.1276 102.884C9.45249 104.492 7.31236 106.635 5.88561 109.314C4.45886 112.172 3.56714 115.387 3.56714 118.96C3.56714 122.532 4.45886 125.569 5.88561 128.248C7.49071 130.927 9.63083 133.07 12.4843 134.678C15.3378 136.286 18.548 137 22.1149 137C24.0767 137 26.2168 136.643 28.3569 135.928C30.4971 135.214 32.4589 134.142 33.8856 133.07C35.134 132.177 35.3124 130.927 35.3124 130.213C35.3124 129.141 34.7773 128.069 33.8856 127.176Z" fill="#001D85"></path>
<path d="M70.9812 112.351C70.0895 111.458 69.1977 111.1 67.9493 111.1C66.7009 111.1 65.6309 111.458 64.9175 112.351C64.0258 113.244 63.6691 114.137 63.6691 115.387V120.21C63.6691 122.353 63.3124 123.961 62.599 125.211C61.8856 126.462 60.8156 127.355 59.5672 128.069C58.4971 128.605 57.2487 128.784 56.0003 128.962C54.7519 128.784 53.5035 128.605 52.4334 128.069C51.185 127.533 50.2933 126.462 49.4016 125.211C48.6882 123.961 48.3315 122.175 48.3315 120.21V105.206C48.3315 103.956 47.9748 102.884 47.0831 102.17C46.1914 101.276 45.2997 100.919 44.0513 100.919C42.8028 100.919 41.7328 101.276 41.0194 102.17C40.1277 103.063 39.771 103.956 39.771 105.206V120.21C39.771 123.782 40.4844 126.819 41.9111 129.319C43.3379 131.82 45.2997 133.785 47.6181 135.035C49.9366 136.286 52.7901 137 55.6436 137C55.822 137 55.822 137 56.0003 137C56.1786 137 56.1786 137 56.357 137C59.3888 137 62.064 136.286 64.3825 135.035C66.8793 133.785 68.6627 131.82 70.0895 129.319C71.5162 126.819 72.2296 123.782 72.2296 120.21V115.387C72.2296 114.137 71.8729 113.065 70.9812 112.351Z" fill="#001D85"></path>
<path d="M222.752 83.5931C221.86 82.7 220.79 82.3428 219.541 82.3428C218.293 82.3428 217.401 82.7 216.51 83.5931C215.618 84.4862 215.261 85.5579 215.261 86.8082C215.261 88.0585 215.618 88.9516 216.51 89.8447C217.401 90.7378 218.471 91.0951 219.541 91.0951C220.79 91.0951 221.86 90.7378 222.752 89.8447C223.643 88.9516 224 87.8799 224 86.8082C224 85.3793 223.643 84.4862 222.752 83.5931Z" fill="#001D85"></path>
<path d="M22.1147 72.1618C21.4013 71.4473 20.5096 71.0901 19.4396 71.0901C18.3695 71.0901 17.4778 71.4473 16.7644 72.1618C16.051 72.8763 15.6943 73.948 15.6943 75.0197C15.6943 76.0914 16.051 76.9845 16.7644 77.699C17.4778 78.4134 18.3695 78.7707 19.4396 78.7707C20.5096 78.7707 21.4013 78.4134 22.1147 77.699C22.8281 76.9845 23.1848 76.0914 23.1848 75.0197C23.1848 73.7694 22.8281 72.8763 22.1147 72.1618Z" fill="#FFCC00"></path>
<path d="M100.586 57.5148C99.8725 56.8004 98.9808 56.4431 97.9107 56.4431C96.8407 56.4431 95.949 56.8004 95.2356 57.5148C94.5222 58.2293 94.1655 59.1224 94.1655 60.1941C94.1655 61.2658 94.5222 62.1589 95.2356 62.8734C95.949 63.5878 96.8407 63.9451 97.9107 63.9451C98.9808 63.9451 99.8725 63.5878 100.586 62.8734C101.299 62.1589 101.656 61.2658 101.656 60.1941C101.656 59.1224 101.299 58.2293 100.586 57.5148Z" fill="#DC5149"></path>
<path d="M56.5351 85.3793C55.8218 84.6649 54.93 84.3076 53.86 84.3076C52.7899 84.3076 51.8982 84.6649 51.1848 85.3793C50.4714 86.0938 50.1147 86.9869 50.1147 88.0586C50.1147 89.1303 50.4714 90.0234 51.1848 90.7379C51.8982 91.4523 52.7899 91.8096 53.86 91.8096C54.93 91.8096 55.8218 91.4523 56.5351 90.7379C57.2485 90.0234 57.6052 89.1303 57.6052 88.0586C57.6052 86.9869 57.2485 86.0938 56.5351 85.3793Z" fill="#4A82FA"></path>
<path d="M156.765 85.0221C156.051 84.3077 155.159 83.9504 154.268 83.9504C153.198 83.9504 152.306 84.3077 151.593 85.0221C150.879 85.7366 150.522 86.6297 150.522 87.7014C150.522 88.7731 150.879 89.6662 151.593 90.3807C152.306 91.0952 153.198 91.4524 154.268 91.4524C155.338 91.4524 156.229 91.0952 156.943 90.3807C157.656 89.6662 158.013 88.7731 158.013 87.7014C157.835 86.8083 157.478 85.9152 156.765 85.0221Z" fill="#4A82FA"></path>
<path d="M70.2675 102.17C69.3758 101.276 68.4841 100.919 67.2357 100.919C66.1656 100.919 65.0956 101.276 64.3822 102.17C63.4905 103.063 63.1338 103.956 63.1338 105.206C63.1338 106.278 63.4905 107.349 64.3822 108.064C65.2739 108.957 66.1656 109.314 67.2357 109.314C68.4841 109.314 69.3758 108.957 70.2675 108.064C70.9809 107.171 71.5159 106.278 71.5159 105.206C71.5159 104.134 71.1593 103.063 70.2675 102.17Z" fill="#FFCC00"></path>
<path d="M34.7771 1.78621C34.0637 1.07174 32.9936 0.535889 31.7452 0.535889C30.4968 0.535889 29.4268 0.893125 28.7134 1.78621C27.8217 2.50069 27.465 3.57239 27.465 4.82272V14.8253C27.6433 15.0039 27.6433 27.5072 27.6433 29.2934C27.6433 31.2582 27.2866 33.0444 26.3949 34.6519C25.5032 36.2595 24.4331 37.5098 23.0064 38.4029C21.5796 39.296 19.9745 39.6532 18.0127 39.6532C16.2293 39.6532 14.6242 39.296 13.1975 38.4029C11.7707 37.5098 10.5223 36.2595 9.80892 34.6519C8.9172 33.0444 8.56051 31.2582 8.56051 29.2934C8.56051 27.3286 8.9172 25.5424 9.80892 23.9348C10.7006 22.5059 13.3758 20.1839 13.3758 20.0052C14.0892 19.1122 14.6242 18.2191 14.6242 17.1474C14.6242 16.0757 14.2675 15.0039 13.3758 14.2895C12.4841 13.575 11.5924 13.2178 10.344 13.2178C9.63057 13.2178 8.38217 13.575 8.20382 13.7536C5.35032 15.5398 3.56688 17.5046 2.14013 20.1839C0.713376 22.8631 0 26.0783 0 29.472C0 32.8657 0.89172 36.0809 2.31847 38.7601C3.92357 41.4394 6.06369 43.7614 8.73885 45.1904C11.414 46.7979 14.6242 47.5124 17.8344 47.5124C21.2229 47.5124 24.2548 46.6193 26.9299 45.1904C29.6051 43.5828 31.7452 41.4394 33.3503 38.7601C34.9554 36.0809 35.6688 32.8657 35.6688 29.472V5.00134C36.0255 3.75101 35.6688 2.6793 34.7771 1.78621Z" fill="#001D85"></path>
<path d="M21.758 10.1812C21.0447 9.28814 19.9746 8.93091 18.9045 8.93091C17.6561 8.93091 16.7644 9.46676 15.8727 10.1812C14.981 11.0743 14.6243 11.9674 14.6243 13.2177C14.8026 14.2894 15.1593 15.1825 15.8727 16.0756C16.7644 16.9687 17.6561 17.326 18.7262 17.326C19.7962 17.326 20.8663 16.9687 21.5797 16.0756C22.2931 15.1825 22.8281 14.2894 22.8281 13.2177C23.0064 11.9674 22.4714 11.0743 21.758 10.1812Z" fill="#FFCC00"></path>
</g>
<defs>
<clipPath id="clip0">
<rect width="224" height="137" fill="white"></rect>
</clipPath>
</defs>
</svg>