<svg class="main-logo--horizontal" xmlns="http://www.w3.org/2000/svg" viewBox="0 0 318.76 43.49">
  <defs>
    <style>
      .cls-1 {
        fill: #001d85;
      }

      .cls-2 {
        fill: #fc0;
      }

      .cls-3 {
        fill: #4a82fa;
      }

      .cls-4 {
        fill: #dc5149;
      }
    </style>
  </defs>
  <g id="eu">
    <path class="cls-1" d="M1091.1,544.42a2.76,2.76,0,0,0-1.93-.67,3.43,3.43,0,0,0-1.92.69,8.07,8.07,0,0,1-2.08,1,7.62,7.62,0,0,1-2.5.45,8.33,8.33,0,0,1-4-1,7.41,7.41,0,0,1-2.71-2.68,6.7,6.7,0,0,1-.63-1.45,11.23,11.23,0,0,1,.06-5.22,3.34,3.34,0,0,1,.42-1.1,6.24,6.24,0,0,1,2.45-2.64,7.25,7.25,0,0,1,3.84-1,5.35,5.35,0,0,1,4.17,1.61,2.83,2.83,0,0,0-.47.29l-4.89,3.64a3.16,3.16,0,0,0-1.23,1.87,3.12,3.12,0,0,0,.34,2.2,2.94,2.94,0,0,0,.87.92,3.06,3.06,0,0,0,3.58-.09l7.69-5.86a2.42,2.42,0,0,0,.8-2.66,9.31,9.31,0,0,0-.52-1.22,10.81,10.81,0,0,0-4.08-4.5,12,12,0,0,0-6.36-1.64,13,13,0,0,0-6.6,1.67,12,12,0,0,0-4.52,4.61,13.76,13.76,0,0,0-1.63,6.74,13,13,0,0,0,1.73,6.69,12.18,12.18,0,0,0,4.78,4.61,14.43,14.43,0,0,0,11.42.87,13.37,13.37,0,0,0,4-2,2.4,2.4,0,0,0,1-2.09,2.85,2.85,0,0,0-1.06-2.07Zm0,0" transform="translate(-800 -518)"></path>
    <path class="cls-2" d="M1117.37,526.5a3,3,0,0,0-4.25,0,3,3,0,0,0-.39,3.81,3,3,0,0,0,3.1,1.27,3,3,0,0,0,1.54-5.06Zm0,0" transform="translate(-800 -518)"></path>
    <path class="cls-1" d="M1117.86,533.78a3,3,0,0,0-2.22-.88,3.09,3.09,0,0,0-2.22.87,3,3,0,0,0-.89,2.21v3.47a7.1,7.1,0,0,1-.81,3.64,4.89,4.89,0,0,1-2.14,2,5.44,5.44,0,0,1-5.11,0,4.81,4.81,0,0,1-2.13-2,7.12,7.12,0,0,1-.81-3.64V528.64a3.12,3.12,0,1,0-6.23,0V539.4a13.45,13.45,0,0,0,1.51,6.52,10.21,10.21,0,0,0,4.13,4.11,12.08,12.08,0,0,0,5.86,1.41h.5a12.13,12.13,0,0,0,5.84-1.4,10.34,10.34,0,0,0,4.12-4.12,13.36,13.36,0,0,0,1.49-6.53v-3.46a3,3,0,0,0-.89-2.15Z" transform="translate(-800 -518)"></path>
  </g>
  <g id="europa">
    <path class="cls-1" d="M1066.94,545.36a3.22,3.22,0,0,0-3.42-.63,3.15,3.15,0,0,0-1.4,1.15,3.08,3.08,0,0,0-.55,1.71,3.19,3.19,0,0,0,.91,2.22,3.25,3.25,0,0,0,2.21,1,3.15,3.15,0,0,0,2.23-.92,3.2,3.2,0,0,0,0-4.49Z" transform="translate(-800 -518)"></path>
    <path class="cls-1" d="M1059.12,537.87a12.68,12.68,0,0,0-1.77-6.18,12.88,12.88,0,0,0-4.58-4.55,13.1,13.1,0,0,0-14.52.86,12.81,12.81,0,0,0-5.1,10.44,13.83,13.83,0,0,0,1.53,6.59,12.22,12.22,0,0,0,4.33,4.64,11.52,11.52,0,0,0,6.23,1.73,7.26,7.26,0,0,0,1.15-.06,4.75,4.75,0,0,0,2.38-.87,2.78,2.78,0,0,0,0-3.9,2.68,2.68,0,0,0-2-.82h-.68a6.66,6.66,0,0,1-3.53-1,6.9,6.9,0,0,1-2.45-2.61,7.56,7.56,0,0,1-.93-3.75,7.72,7.72,0,0,1,.93-3.8,6.74,6.74,0,0,1,6-3.55,6.61,6.61,0,0,1,3.55.94,6.78,6.78,0,0,1,2.44,2.6,7.76,7.76,0,0,1,.9,3.81c0,1.38-.25,10.28-.14,10.2a2.9,2.9,0,0,0,.87,1.74,3,3,0,0,0,2.21.89,3.06,3.06,0,0,0,2.22-.88,3,3,0,0,0,.89-2.2Z" transform="translate(-800 -518)"></path>
    <path class="cls-1" d="M1006.48,560.63a3.07,3.07,0,0,0,2.24.86,3.11,3.11,0,0,0,2.21-.85,3,3,0,0,0,.91-2.23v-9.63c-.09-.18-.19-9.07-.19-10.3a7.81,7.81,0,0,1,.92-3.79,6.64,6.64,0,0,1,2.45-2.62,7.05,7.05,0,0,1,7.08,0,6.87,6.87,0,0,1,2.51,2.62,7.93,7.93,0,0,1,.93,3.79,7.66,7.66,0,0,1-.93,3.77,7,7,0,0,1-2.51,2.59,6.75,6.75,0,0,1-3.53.94h-1.13a2.58,2.58,0,0,0-1.9.8,2.69,2.69,0,0,0,0,3.77,3.61,3.61,0,0,0,1,.74,8.47,8.47,0,0,0,2.92.37,11.58,11.58,0,0,0,6.22-1.72,12.32,12.32,0,0,0,4.33-4.65,13.63,13.63,0,0,0,1.57-6.59,13,13,0,1,0-26,0v19.91a3,3,0,0,0,.88,2.21Z" transform="translate(-800 -518)"></path>
    <path class="cls-1" d="M1006.48,560.63" transform="translate(-800 -518)"></path>
    <path class="cls-3" d="M1019.39,546.46a2.7,2.7,0,0,0-3.8,0,2.89,2.89,0,0,0-.08,3.91,2.7,2.7,0,0,0,3.93,0,2.94,2.94,0,0,0-.05-3.91Zm0,0" transform="translate(-800 -518)"></path>
    <path class="cls-1" d="M1002.23,531.7a12.18,12.18,0,0,0-4.62-4.61,14.36,14.36,0,0,0-13.45,0,12.18,12.18,0,0,0-4.62,4.61,14.34,14.34,0,0,0,0,13.43,12.32,12.32,0,0,0,4.62,4.61,14.41,14.41,0,0,0,13.45,0,12.17,12.17,0,0,0,4.59-4.61,14.61,14.61,0,0,0,0-13.43Zm-11.3,14a7,7,0,0,1-3.66-.93,6.69,6.69,0,0,1-2.45-2.56,7.8,7.8,0,0,1-.9-3.82,8,8,0,0,1,.9-3.86,6.72,6.72,0,0,1,2.45-2.57,7.51,7.51,0,0,1,7.21,0,6.42,6.42,0,0,1,2.44,2.57,8.73,8.73,0,0,1,0,7.68,6.63,6.63,0,0,1-2.45,2.56,7,7,0,0,1-3.56.93Zm0,0" transform="translate(-800 -518)"></path>
    <path class="cls-2" d="M1001.68,541.58a2.95,2.95,0,0,0-4.18,0,2.94,2.94,0,0,0-.24,3.95,3,3,0,0,0,2.58,1.08,2.94,2.94,0,0,0,2.68-2.93,3,3,0,0,0-.84-2.1Zm0,0" transform="translate(-800 -518)"></path>
    <path class="cls-1" d="M978.12,526.34a8.45,8.45,0,0,0-4.5-.93,23.59,23.59,0,0,0-6.41,1c-3,1-5.94,3.42-6.11,6.72v15.09a3,3,0,0,0,.83,2.24,3.54,3.54,0,0,0,4.51,0,3,3,0,0,0,.78-2.21v-12.8a3.66,3.66,0,0,1,1-2.72,6.08,6.08,0,0,1,3.12-1.55,11.71,11.71,0,0,1,4.68.08,3.72,3.72,0,0,0,1.41,0,2.54,2.54,0,0,0,1.22-.62,2.45,2.45,0,0,0,.77-1.37,2.58,2.58,0,0,0-1.35-2.9Zm0,0" transform="translate(-800 -518)"></path>
    <path class="cls-4" d="M978.79,526.7a2.69,2.69,0,0,0-2.94-.58,2.82,2.82,0,0,0-.87.58,2.91,2.91,0,0,0-.07,3.91,2.7,2.7,0,0,0,3.93,0,2.68,2.68,0,0,0,.71-2,2.62,2.62,0,0,0-.76-1.91Zm0,0" transform="translate(-800 -518)"></path>
    <path class="cls-1" d="M955.68,526.5a3,3,0,0,0-2.22-.89,3,3,0,0,0-3.12,3V539.4a7.2,7.2,0,0,1-.81,3.64,4.79,4.79,0,0,1-2.14,2,5.48,5.48,0,0,1-5.1,0,4.84,4.84,0,0,1-2.14-2,7.1,7.1,0,0,1-.81-3.64V528.64a3,3,0,0,0-.9-2.2,3.06,3.06,0,0,0-2.21-.88,3,3,0,0,0-2.22.89,3,3,0,0,0-.89,2.19V539.4a13.37,13.37,0,0,0,1.5,6.51,10.24,10.24,0,0,0,4.13,4.12,12.14,12.14,0,0,0,5.85,1.4h.5A12.14,12.14,0,0,0,951,550a10.09,10.09,0,0,0,4.12-4.12,13.17,13.17,0,0,0,1.5-6.52V528.64a2.93,2.93,0,0,0-.89-2.14Zm0,0" transform="translate(-800 -518)"></path>
    <path class="cls-3" d="M947,546.66a2.51,2.51,0,0,0-1.91-.8,2.59,2.59,0,0,0-1.88.78,2.65,2.65,0,0,0-.8,1.91,2.73,2.73,0,0,0,.8,1.88,2.7,2.7,0,0,0,1.88.79,2.7,2.7,0,0,0,2.69-2.67,2.57,2.57,0,0,0-.78-1.89Zm0,0" transform="translate(-800 -518)"></path>
    <path class="cls-1" d="M928.72,544.42a2.76,2.76,0,0,0-1.93-.67,3.4,3.4,0,0,0-1.92.69,8.07,8.07,0,0,1-2.08,1,7.8,7.8,0,0,1-2.44.45,8.3,8.3,0,0,1-4-1,7.35,7.35,0,0,1-2.77-2.68,7.26,7.26,0,0,1-.64-1.45,11.37,11.37,0,0,1,.07-5.22,3.16,3.16,0,0,1,.43-1.1,6.16,6.16,0,0,1,2.44-2.64,7.25,7.25,0,0,1,3.84-1,5.93,5.93,0,0,1,3.26.86,9.89,9.89,0,0,1,1.09,1,2.25,2.25,0,0,0-.47.28l-4.89,3.64a2.48,2.48,0,0,0-.67,3.64c1,1.54,2.61,2.21,4,1.13l7.75-5.92a2.42,2.42,0,0,0,.81-2.66,9.37,9.37,0,0,0-.53-1.22,10.74,10.74,0,0,0-4.08-4.5,12,12,0,0,0-6.36-1.64,13,13,0,0,0-6.59,1.67,12,12,0,0,0-4.53,4.61,13.75,13.75,0,0,0-1.62,6.74,13.09,13.09,0,0,0,1.72,6.69,12.24,12.24,0,0,0,4.78,4.61,14.46,14.46,0,0,0,11.43.87,13.5,13.5,0,0,0,4-2,2.46,2.46,0,0,0,.79-.91,2.42,2.42,0,0,0,.25-1.18,2.89,2.89,0,0,0-1.1-2.07Zm0,0" transform="translate(-800 -518)"></path>
    <path class="cls-2" d="M922.23,537.2a2.8,2.8,0,0,0-4.79,2,2.61,2.61,0,0,0,.83,2,2.67,2.67,0,0,0,2,.83,2.82,2.82,0,0,0,2.81-2.78,2.78,2.78,0,0,0-.82-2Z" transform="translate(-800 -518)"></path>
  </g>
  <g id="data">
    <path class="cls-2" d="M904.82,546.16a2.49,2.49,0,0,0-1.9-.8,2.6,2.6,0,0,0-1.89.79,2.66,2.66,0,0,0,0,3.78,2.61,2.61,0,0,0,1.89.84,2.52,2.52,0,0,0,1.9-.8,2.66,2.66,0,0,0,0-3.76Z" transform="translate(-800 -518)"></path>
    <path class="cls-1" d="M896.9,537.87a12.88,12.88,0,0,0-4-9,13.08,13.08,0,0,0-18.39.4,12.9,12.9,0,0,0-3.61,9.22,13.76,13.76,0,0,0,1.58,6.59,12.22,12.22,0,0,0,4.33,4.64,11.45,11.45,0,0,0,6.32,1.73,8.66,8.66,0,0,0,1.22-.06,4.77,4.77,0,0,0,2.44-.87,2.8,2.8,0,0,0-.9-4.52,2.66,2.66,0,0,0-1.08-.2h-.68a6.8,6.8,0,0,1-6-3.56,7.59,7.59,0,0,1-.15-7.55,6.89,6.89,0,0,1,7.84-3.35,6.79,6.79,0,0,1,4.19,3.34,7.78,7.78,0,0,1,.92,3.81c0,1.38-.26,10.28-.15,10.2a2.86,2.86,0,0,0,.86,1.74,3.2,3.2,0,0,0,4.43,0,3,3,0,0,0,.89-2.19V537.87ZM864,526.5v-5.45a3,3,0,0,0-.53-1.69,3.06,3.06,0,0,0-1.37-1.12,3.14,3.14,0,0,0-3.35.62,3,3,0,0,0-.87,2.19v5.45h-1.22a3,3,0,0,0-2.09.75,2.72,2.72,0,0,0-.82,2,2.62,2.62,0,0,0,.84,2,3,3,0,0,0,2.09.75h1.23v9.93a10,10,0,0,0,1.09,4.72,8.69,8.69,0,0,0,3.09,3.36,8,8,0,0,0,4.42,1.21h.8a3.62,3.62,0,0,0,2.44-.81,2.84,2.84,0,0,0,1-2.22A3.13,3.13,0,0,0,870,546a2.55,2.55,0,0,0-2-.89h-1.53a2.13,2.13,0,0,1-1.72-.88,3.72,3.72,0,0,1-.77-2.43V532" transform="translate(-800 -518)"></path>
    <path class="cls-4" d="M869.13,527.42a2.54,2.54,0,0,0-1.9-.8,2.7,2.7,0,0,0-2.69,2.69,2.64,2.64,0,0,0,.79,1.88,2.72,2.72,0,0,0,1.9.79,2.68,2.68,0,0,0,1.9-4.56Zm0,0" transform="translate(-800 -518)"></path>
    <path class="cls-1" d="M854.12,537.87a12.88,12.88,0,0,0-4-9,13.08,13.08,0,0,0-18.39.4,12.9,12.9,0,0,0-3.61,9.22,13.76,13.76,0,0,0,1.58,6.59,12.22,12.22,0,0,0,4.33,4.64,11.45,11.45,0,0,0,6.32,1.73,7.45,7.45,0,0,0,1.16-.06,4.77,4.77,0,0,0,2.44-.87A2.8,2.8,0,0,0,843,546a2.66,2.66,0,0,0-1.08-.2h-.68a6.8,6.8,0,0,1-6-3.56,7.59,7.59,0,0,1-1-3.75,7.72,7.72,0,0,1,.93-3.8,6.91,6.91,0,0,1,2.51-2.61,6.8,6.8,0,0,1,5.32-.74,6.61,6.61,0,0,1,2.45,1.24,6.69,6.69,0,0,1,1.75,2.1,7.89,7.89,0,0,1,.92,3.81c0,1.38-.26,10.28-.15,10.2a3,3,0,0,0,.85,1.74,3.23,3.23,0,0,0,4.45,0,3,3,0,0,0,.89-2.19V537.87Zm0,0" transform="translate(-800 -518)"></path>
    <path class="cls-3" d="M844,546.52a2.56,2.56,0,0,0-1.9-.8,2.7,2.7,0,0,0-2.69,2.7,2.68,2.68,0,0,0,.79,1.88,2.77,2.77,0,0,0,1.9.79,2.72,2.72,0,0,0,1.89-.79,2.69,2.69,0,0,0,0-3.78Zm0,0" transform="translate(-800 -518)"></path>
    <path class="cls-1" d="M825.1,519.34a3,3,0,0,0-2.23-.87,3.11,3.11,0,0,0-2.21.85,3,3,0,0,0-.91,2.23v7.2c.1.19.19,9.07.19,10.31a7.84,7.84,0,0,1-.92,3.79,6.59,6.59,0,0,1-6,3.56,6.75,6.75,0,0,1-3.53-.94,6.93,6.93,0,0,1-2.44-2.63,7.78,7.78,0,0,1-.93-3.78,7.61,7.61,0,0,1,.93-3.77,16.11,16.11,0,0,1,2.56-2.72,3,3,0,0,0,0-4.18,2.83,2.83,0,0,0-2.11-.87,4.33,4.33,0,0,0-1.58.36,11.93,11.93,0,0,0-4.32,4.65,13.64,13.64,0,0,0-1.58,6.53,12.77,12.77,0,0,0,6.39,11.3,13,13,0,0,0,6.61,1.71,12.73,12.73,0,0,0,11.25-6.37,13,13,0,0,0,1.72-6.64V521.55a3,3,0,0,0-.87-2.21Zm0,0" transform="translate(-800 -518)"></path>
    <path class="cls-2" d="M815.71,525.28a3,3,0,0,0-4.21,0,2.92,2.92,0,0,0-.88,2.12,2.8,2.8,0,0,0,.88,2.07,2.91,2.91,0,0,0,2.1.88,3,3,0,0,0,2.11-.88,2.85,2.85,0,0,0,.85-2.06,2.91,2.91,0,0,0-.85-2.13Zm0,0" transform="translate(-800 -518)"></path>
  </g>
</svg>